HIERARCHY
ROOT Hips
{
 OFFSET 0.000000 0.000000 0.000000
 CHANNELS 6 Xposition Yposition Zposition Yrotation Xrotation Zrotation
 JOINT Chest
 {
  OFFSET 0.000000 9.588913 -0.003946
  CHANNELS 3 Yrotation Xrotation Zrotation
  JOINT Chest2
  {
   OFFSET 0.000000 9.541882 0.008053
   CHANNELS 3 Yrotation Xrotation Zrotation
   JOINT Chest3
   {
    OFFSET 0.000000 9.501360 0.000000
    CHANNELS 3 Yrotation Xrotation Zrotation
    JOINT Chest4
    {
     OFFSET 0.000000 9.491660 0.000000
     CHANNELS 3 Yrotation Xrotation Zrotation
     JOINT Neck
     {
      OFFSET 0.000000 14.331917 0.000000
      CHANNELS 3 Yrotation Xrotation Zrotation
      JOINT Head
      {
       OFFSET 0.000000 8.884799 0.017034
       CHANNELS 3 Yrotation Xrotation Zrotation
       End Site
       {
        OFFSET 0.000000 16.896195 0.008993
       }
      }
     }
     JOINT RightCollar
     {
      OFFSET -2.923010 9.499495 0.000000
      CHANNELS 3 Yrotation Xrotation Zrotation
      JOINT RightShoulder
      {
       OFFSET -13.795216 0.000000 0.000000
       CHANNELS 3 Yrotation Xrotation Zrotation
       JOINT RightElbow
       {
        OFFSET -30.272209 0.000000 0.000000
        CHANNELS 3 Yrotation Xrotation Zrotation
        JOINT RightWrist
        {
         OFFSET -24.478199 0.000000 0.000000
         CHANNELS 3 Yrotation Xrotation Zrotation
         End Site
         {
          OFFSET -18.090752 0.000000 0.000000
         }
        }
       }
      }
     }
     JOINT LeftCollar
     {
      OFFSET 2.923010 9.499495 0.000000
      CHANNELS 3 Yrotation Xrotation Zrotation
      JOINT LeftShoulder
      {
       OFFSET 13.795216 0.000000 0.000000
       CHANNELS 3 Yrotation Xrotation Zrotation
       JOINT LeftElbow
       {
        OFFSET 30.272209 0.000000 0.000000
        CHANNELS 3 Yrotation Xrotation Zrotation
        JOINT LeftWrist
        {
         OFFSET 24.478199 0.000000 0.000000
         CHANNELS 3 Yrotation Xrotation Zrotation
         End Site
         {
          OFFSET 18.090752 0.000000 0.000000
         }
        }
       }
      }
     }
    }
   }
  }
 }
 JOINT RightHip
 {
  OFFSET -7.826875 0.019532 0.001973
  CHANNELS 3 Yrotation Xrotation Zrotation
  JOINT RightKnee
  {
   OFFSET 0.000000 -40.546152 -0.001885
   CHANNELS 3 Yrotation Xrotation Zrotation
   JOINT RightAnkle
   {
    OFFSET 0.000000 -39.417092 -0.003189
    CHANNELS 3 Yrotation Xrotation Zrotation
    JOINT RightToe
    {
     OFFSET 0.000000 -7.579396 17.243563
     CHANNELS 3 Yrotation Xrotation Zrotation
     End Site
     {
      OFFSET 0.000000 -1.500329 6.694466
     }
    }
   }
  }
 }
 JOINT LeftHip
 {
  OFFSET 7.826875 0.019532 0.001973
  CHANNELS 3 Yrotation Xrotation Zrotation
  JOINT LeftKnee
  {
   OFFSET 0.000000 -40.546152 -0.001885
   CHANNELS 3 Yrotation Xrotation Zrotation
   JOINT LeftAnkle
   {
    OFFSET 0.000000 -39.417092 -0.003189
    CHANNELS 3 Yrotation Xrotation Zrotation
    JOINT LeftToe
    {
     OFFSET 0.000000 -7.579396 17.243563
     CHANNELS 3 Yrotation Xrotation Zrotation
     End Site
     {
      OFFSET 0.000000 -1.500329 6.694466
     }
    }
   }
  }
 }
}
MOTION
Frames: 9
Frame Time: 0.008333
42.633941 77.740787 -83.969242 130.195089 3.420798 2.968520 1.352098 5.604102 0.872864 2.721490 4.362672 0.234367 3.407134 5.451196 0.325669 2.721492 4.362655 0.234365 -2.834152 14.433701 -1.582423 -2.611870 -10.548197 -1.015723 5.681802 -1.263284 -5.918785 -17.298471 -0.955438 78.021617 59.069275 -7.180694 24.237931 15.167131 -6.500880 -4.986547 8.931391 4.751237 5.255454 20.385829 15.089787 -77.014877 -8.046130 4.967285 3.004139 -2.083310 8.861227 -1.650390 -8.937950 8.884637 -15.645419 9.775609 48.601468 -3.124965 2.170524 5.979327 20.090251 -5.987769 -64.185122 8.313541 12.422571 -38.221506 -7.926990 14.036086 55.501705 18.789201 16.026769 -19.764777 -13.326969 1.391566 -2.185366 -1.185861
43.949572 77.709125 -85.113369 130.944796 3.207162 3.255616 0.962924 5.737171 0.747253 2.579837 4.361644 0.206626 3.229604 5.450230 0.289273 2.579835 4.361620 0.206626 -2.778160 14.465017 -1.528337 -2.564312 -10.517256 -0.971290 5.489568 -0.814756 -6.065730 -17.276412 -0.331398 78.458497 57.759641 -6.760155 23.718813 15.494750 -6.504678 -5.392231 8.689937 4.653623 4.980188 20.004088 14.711587 -77.446321 -8.486944 3.755827 2.623122 -2.177477 8.719665 -1.641611 -8.834787 6.609666 -15.270936 9.734262 52.668190 -3.524127 2.088217 9.217137 20.137394 -7.816949 -64.159581 11.846722 11.835122 -37.274572 -8.030048 14.285652 56.315815 19.257190 16.271490 -19.969652 -13.926303 1.508192 -2.143521 -0.995728
45.179475 77.706832 -86.258689 131.357778 3.406715 4.086057 0.928541 5.423488 0.093484 2.422786 4.382141 0.170288 3.032741 5.476214 0.242084 2.422780 4.382109 0.170288 -2.731552 14.476417 -1.474973 -2.526583 -10.506805 -0.925564 5.283999 -0.456169 -6.166267 -17.108659 0.399756 78.917904 56.191244 -6.478994 23.042441 15.677563 -6.568204 -5.704014 8.419865 4.546434 4.643424 19.684990 14.178036 -77.830277 -8.976624 2.834221 2.208636 -2.314288 8.621534 -1.609167 -8.297971 3.499920 -15.320020 10.012941 57.252404 -3.451042 1.390671 11.386386 19.273214 -7.291383 -61.095439 13.481752 12.151088 -36.520105 -8.904170 14.747388 57.001924 19.897094 16.081220 -20.146947 -14.604777 1.783858 -2.193599 -0.684046
46.530028 77.718235 -87.400929 131.945239 3.088203 4.608360 0.769856 5.539821 -0.185506 2.252758 4.422066 0.123601 2.819537 5.526518 0.181897 2.252746 4.422023 0.123601 -2.700467 14.480821 -1.421388 -2.505420 -10.503278 -0.876207 5.051831 -0.157856 -6.230160 -16.814827 1.229489 79.406657 54.376641 -6.385577 22.252444 15.713969 -6.674941 -5.930379 8.106969 4.461768 4.256270 19.421923 13.466593 -78.151760 -9.507797 2.236711 1.751880 -2.522592 8.517751 -1.533036 -8.142466 1.719490 -15.332784 11.114225 60.637073 -2.365441 0.267230 11.469819 17.745649 -4.971139 -54.632647 12.820709 12.019761 -35.246826 -9.278500 15.194975 57.562148 20.570616 16.106333 -20.430376 -15.304317 1.783951 -2.369565 -0.486904
47.907102 77.751665 -88.550032 132.525051 2.660840 5.176146 0.650612 5.695073 -0.461207 2.074296 4.477995 0.065219 2.595641 5.596851 0.107030 2.074277 4.477941 0.065219 -2.687469 14.489939 -1.368996 -2.503250 -10.494423 -0.824141 4.793610 0.124887 -6.262267 -16.444149 2.131956 79.935370 52.337067 -6.500204 21.391894 15.607065 -6.814971 -6.091780 7.735660 4.414955 3.818329 19.187282 12.589756 -78.400215 -10.092555 1.934257 1.245769 -2.799286 8.365927 -1.396998 -8.063236 0.151542 -15.354052 13.360425 63.816698 -0.155558 -1.658857 10.089238 15.666292 -2.422148 -46.496493 12.051903 11.910404 -33.801576 -9.703895 15.523514 58.053516 21.200160 16.260525 -20.643693 -16.049960 1.684209 -3.187274 -0.350497
49.312547 77.805581 -89.706253 133.123474 2.114909 5.740109 0.530955 5.896851 -0.686879 1.894805 4.554245 -0.004708 2.370301 5.692587 0.017753 1.894775 4.554185 -0.004710 -2.691395 14.503904 -1.321237 -2.518066 -10.480105 -0.773216 4.518628 0.393266 -6.256640 -16.039963 3.083064 80.502185 50.101451 -6.789667 20.481499 15.367711 -7.004803 -6.200890 7.283673 4.368183 3.311017 18.939093 11.589889 -78.550776 -10.753955 1.828195 0.682225 -3.125177 8.169490 -1.186744 -8.122061 -1.359152 -15.302116 16.903097 66.785938 3.237560 -4.206269 7.936216 13.370784 -0.283533 -38.393984 11.942719 11.675044 -32.226972 -10.079055 15.719045 58.531008 21.751984 16.540517 -20.728459 -16.869081 1.539398 -4.395868 -0.254803
50.914109 77.863403 -90.876768 134.359413 0.628991 5.603216 -0.238809 6.916376 -0.166574 1.722589 4.645020 -0.082910 2.153931 5.806453 -0.081794 1.722556 4.644961 -0.082913 -2.706748 14.522314 -1.284669 -2.542566 -10.460821 -0.731505 4.227155 0.671111 -6.212784 -15.617895 4.039103 81.111799 47.703254 -7.190836 19.499439 15.006317 -7.258582 -6.243291 6.735752 4.322284 2.739421 18.641748 10.491811 -78.611267 -11.528308 1.809171 0.055871 -3.452237 7.947985 -0.899020 -9.297438 -1.153563 -14.721194 20.556805 68.307446 6.742119 -7.021685 4.702415 10.962422 1.203227 -30.782650 12.522306 10.072287 -29.940938 -9.408543 15.893155 59.008185 22.297236 17.183853 -20.817123 -17.765404 1.156697 -5.473949 -0.298164
52.393918 77.946141 -92.015921 135.203272 -0.117938 5.824443 -0.621853 7.238643 -0.032622 1.561785 4.730286 -0.161701 1.951784 5.913367 -0.182046 1.561759 4.730235 -0.161702 -2.722911 14.546450 -1.267449 -2.563652 -10.435430 -0.709907 3.920107 1.015046 -6.143635 -15.190414 4.943644 81.764331 45.184427 -7.599512 18.435505 14.538472 -7.551324 -6.219682 6.124942 4.354481 2.139844 18.259413 9.280178 -78.659288 -12.453352 1.771732 -0.634751 -3.721222 7.708815 -0.525765 -9.927833 -2.637560 -14.368705 24.340906 70.537077 10.262696 -9.298046 2.321287 8.976389 2.150144 -26.245660 13.603297 9.150770 -28.273808 -9.315244 16.158415 59.457640 22.911029 17.508542 -20.741588 -18.694072 0.982832 -6.756621 -0.278817
53.848926 78.044952 -93.195739 135.642885 -0.855472 6.312266 -0.691289 7.617156 -0.200882 1.409203 4.797236 -0.232324 1.759984 5.997287 -0.272122 1.409186 4.797193 -0.232324 -2.728207 14.582488 -1.272171 -2.568351 -10.397754 -0.713739 3.614334 1.442397 -6.068080 -14.773150 5.771861 82.439836 42.578059 -7.878938 17.317196 13.993152 -7.836706 -6.182441 5.512135 4.485709 1.531635 17.772727 7.985083 -78.751870 -13.560372 1.619918 -1.386268 -3.885861 7.451264 -0.048132 -10.240338 -4.501996 -14.367312 27.431568 72.872828 13.021776 -11.004565 0.209250 7.623078 2.622701 -23.474959 14.884526 8.733505 -26.506564 -9.523185 16.469346 59.835752 23.550477 17.693770 -20.372171 -19.564345 0.775398 -8.310348 -0.303082
